<svg width="22" height="22" viewBox="0 0 22 22" fill="none" xmlns="http://www.w3.org/2000/svg">
<path d="M11 1C9.02219 1 7.08879 1.58649 5.4443 2.6853C3.79981 3.78412 2.51809 5.3459 1.76121 7.17317C1.00433 9.00043 0.806299 11.0111 1.19215 12.9509C1.578 14.8907 2.53041 16.6725 3.92894 18.0711C5.32746 19.4696 7.10929 20.422 9.0491 20.8079C10.9889 21.1937 12.9996 20.9957 14.8268 20.2388C16.6541 19.4819 18.2159 18.2002 19.3147 16.5557C20.4135 14.9112 21 12.9778 21 11C20.305 11.214 19.5648 11.2345 18.8591 11.0593C18.1533 10.8841 17.5087 10.5198 16.9945 10.0056C16.4803 9.49135 16.116 8.8467 15.9407 8.14094C15.7655 7.43517 15.786 6.69499 16 6C15.305 6.214 14.5648 6.23449 13.8591 6.05927C13.1533 5.88405 12.5087 5.51975 11.9945 5.00555C11.4803 4.49135 11.116 3.8467 10.9407 3.14094C10.7655 2.43517 10.786 1.69499 11 1" stroke="black" stroke-width="2" stroke-linecap="round" stroke-linejoin="round"/>
</svg>
